<?xml version="1.0" encoding="UTF-8"?>
<svg id="Calque_1" data-name="Calque 1" xmlns="http://www.w3.org/2000/svg" viewBox="0 0 525.46 284.66">
  <defs>
    <style>
      .cls-1 {
        fill: #fff;
      }
    </style>
  </defs>
  <path class="cls-1" d="m262.19,163.87c-17.12.08-32.64-4.58-46.67-14.71-18.76-13.54-30-31.6-33.95-54.22-1.69-9.66-1.23-19.36.53-29.04,2.56-14.03,10.14-27.8,18-37.15,11.77-13.99,26.6-22.91,44.28-26.81,10.51-2.32,21.17-2.59,32.01-.74,9.59,1.64,18.26,5.06,26.86,9.27,9.57,4.69,16.53,12.29,23.48,19.94,6.62,7.28,10.5,16.14,13.8,25.24,1.05,2.9,1.66,5.87,1.64,9.18-.01,2.14,1.46,4.78,1.93,7.4.63,3.49.51,6.98.54,10.42.08,9.95-1.56,19.74-5.32,28.95-10.59,25.92-29.53,42.54-56.57,50.03-6.77,1.87-13.6,2.39-20.56,2.23Z"/>
  <path class="cls-1" d="m443.31,163.75c-16.68,1.04-31.33-4.28-44.84-12.8-12.81-8.09-22.03-19.52-28.79-33.08-3.67-7.35-6.57-15.01-7.27-23.06-.62-7.14-.84-14.38-.12-21.72.59-6.01,1.54-11.73,3.38-17.37,5.37-16.46,15.28-29.86,29.06-40.01,11.51-8.47,24.6-13.58,39.11-15.09,19.18-2,37.01,1.58,53.29,11.76,19.36,12.11,31.95,29.44,36.45,51.87,6.69,33.36-4.51,65.34-33.57,85.38-14.01,9.66-29.56,15.37-46.7,14.12Z"/>
  <path class="cls-1" d="m.02,82.3C-.77,35.32,37.13,2.7,75.18.23c23.57-1.53,44.85,5.25,62.57,21.49,12.77,11.7,21.45,26.18,24.64,42.96,5.46,28.7-1.56,54.58-22.6,75.38-14.48,14.33-32.11,22.41-52.99,23.92C37.76,167.53-1.06,126.17.02,82.3Z"/>
  <g>
    <path class="cls-1" d="m1.96,222.26l17.26-39.78h.42l17.26,39.78h-8.74l-11.02-27.98,5.46-3.74-13.21,31.72H1.96Zm11.8-13.83h11.49l2.65,6.34H11.42l2.34-6.34Z"/>
    <path class="cls-1" d="m44.44,183.98h23.92v7.28h-16.38v8.68h14.2v7.28h-14.2v15.03h-7.54v-38.27Z"/>
    <path class="cls-1" d="m89.21,183.98c2.39,0,4.52.3,6.4.91,1.87.61,3.44,1.47,4.71,2.6,1.26,1.13,2.23,2.48,2.89,4.06.66,1.58.99,3.35.99,5.33,0,1.56-.23,3.12-.7,4.68-.47,1.56-1.23,2.98-2.29,4.26-1.06,1.28-2.45,2.31-4.19,3.09-1.73.78-3.88,1.17-6.45,1.17h-5.41v12.17h-7.54v-38.27h11.6Zm1.3,18.82c1.14,0,2.1-.19,2.86-.57.76-.38,1.36-.87,1.79-1.46.43-.59.74-1.2.94-1.85.19-.64.29-1.24.29-1.79,0-.42-.06-.94-.18-1.59-.12-.64-.37-1.29-.75-1.95-.38-.66-.96-1.21-1.74-1.66-.78-.45-1.83-.68-3.15-.68h-5.41v11.54h5.36Zm7.07,4.68l9.46,14.77h-8.79l-9.67-14.56,9-.21Z"/>
    <path class="cls-1" d="m115.27,183.98h7.54v38.27h-7.54v-38.27Z"/>
    <path class="cls-1" d="m163.37,219.08c-.42.35-1.19.81-2.31,1.4-1.13.59-2.5,1.11-4.13,1.56-1.63.45-3.43.66-5.41.62-3.02-.07-5.71-.62-8.09-1.64-2.38-1.02-4.39-2.42-6.03-4.19-1.65-1.77-2.9-3.8-3.77-6.08-.87-2.29-1.3-4.73-1.3-7.33,0-2.91.44-5.58,1.33-8.01.88-2.43,2.15-4.52,3.8-6.29,1.65-1.77,3.61-3.14,5.9-4.11,2.29-.97,4.82-1.46,7.59-1.46,2.57,0,4.84.35,6.81,1.04,1.98.69,3.59,1.44,4.84,2.24l-2.96,7.12c-.87-.66-2.02-1.34-3.46-2.05-1.44-.71-3.09-1.07-4.97-1.07-1.46,0-2.85.3-4.19.91-1.33.61-2.51,1.46-3.54,2.57-1.02,1.11-1.83,2.4-2.42,3.87-.59,1.47-.88,3.08-.88,4.81,0,1.84.27,3.52.81,5.04.54,1.53,1.31,2.83,2.31,3.93,1.01,1.09,2.21,1.93,3.61,2.52,1.4.59,2.99.88,4.76.88,2.05,0,3.8-.33,5.25-.99,1.46-.66,2.57-1.35,3.33-2.08l3.12,6.76Z"/>
    <path class="cls-1" d="m168.57,222.26l17.26-39.78h.42l17.26,39.78h-8.74l-11.02-27.98,5.46-3.74-13.21,31.72h-7.44Zm11.8-13.83h11.49l2.65,6.34h-16.48l2.34-6.34Z"/>
    <path class="cls-1" d="m245.32,223.82l-29.02-26.21,2.24,1.25.16,23.4h-7.64v-39.78h.31l28.39,26.1-1.66-.73-.16-23.87h7.59v39.83h-.21Z"/>
    <path class="cls-1" d="m276.26,183.98h23.92v7.28h-16.38v8.68h14.2v7.28h-14.2v15.03h-7.54v-38.27Z"/>
    <path class="cls-1" d="m316.19,208.11c0,1.21.36,2.37,1.09,3.48.73,1.11,1.69,2.01,2.89,2.7,1.2.69,2.5,1.04,3.93,1.04,1.56,0,2.95-.35,4.16-1.04,1.21-.69,2.17-1.59,2.89-2.7.71-1.11,1.07-2.27,1.07-3.48v-24.13h7.44v24.28c0,2.81-.69,5.3-2.08,7.46-1.39,2.17-3.26,3.87-5.62,5.1-2.36,1.23-4.98,1.85-7.85,1.85s-5.43-.62-7.77-1.85-4.2-2.93-5.59-5.1c-1.39-2.17-2.08-4.65-2.08-7.46v-24.28h7.54v24.13Z"/>
    <path class="cls-1" d="m348.12,183.98h25.79v7.28h-9.31v30.99h-7.54v-30.99h-8.94v-7.28Z"/>
    <path class="cls-1" d="m389.93,208.11c0,1.21.36,2.37,1.09,3.48.73,1.11,1.69,2.01,2.89,2.7,1.2.69,2.5,1.04,3.93,1.04,1.56,0,2.95-.35,4.16-1.04,1.21-.69,2.17-1.59,2.89-2.7.71-1.11,1.07-2.27,1.07-3.48v-24.13h7.44v24.28c0,2.81-.69,5.3-2.08,7.46-1.39,2.17-3.26,3.87-5.62,5.1-2.36,1.23-4.98,1.85-7.85,1.85s-5.43-.62-7.77-1.85-4.2-2.93-5.59-5.1c-1.39-2.17-2.08-4.65-2.08-7.46v-24.28h7.54v24.13Z"/>
    <path class="cls-1" d="m436.05,183.98c2.39,0,4.52.3,6.4.91,1.87.61,3.44,1.47,4.71,2.6,1.26,1.13,2.23,2.48,2.89,4.06.66,1.58.99,3.35.99,5.33,0,1.56-.23,3.12-.7,4.68-.47,1.56-1.23,2.98-2.29,4.26-1.06,1.28-2.45,2.31-4.19,3.09-1.73.78-3.88,1.17-6.45,1.17h-5.41v12.17h-7.54v-38.27h11.6Zm1.3,18.82c1.14,0,2.1-.19,2.86-.57.76-.38,1.36-.87,1.79-1.46.43-.59.74-1.2.94-1.85.19-.64.29-1.24.29-1.79,0-.42-.06-.94-.18-1.59-.12-.64-.37-1.29-.75-1.95-.38-.66-.96-1.21-1.74-1.66-.78-.45-1.83-.68-3.15-.68h-5.41v11.54h5.36Zm7.07,4.68l9.46,14.77h-8.79l-9.67-14.56,9-.21Z"/>
    <path class="cls-1" d="m462.1,183.98h26.1v7.28h-18.56v8.16h16.43v7.28h-16.43v8.27h19.29v7.28h-26.83v-38.27Z"/>
    <path class="cls-1" d="m519.15,193.24c-1.46-.8-2.94-1.46-4.45-1.98-1.51-.52-2.92-.78-4.24-.78-1.63,0-2.91.33-3.85.99-.94.66-1.4,1.65-1.4,2.96,0,.9.35,1.71,1.07,2.42.71.71,1.63,1.34,2.76,1.9,1.13.55,2.3,1.06,3.51,1.51,1.11.42,2.21.91,3.3,1.48,1.09.57,2.07,1.28,2.94,2.13.87.85,1.56,1.91,2.08,3.17.52,1.27.78,2.82.78,4.65,0,1.94-.5,3.74-1.51,5.41-1.01,1.66-2.48,3.01-4.42,4.03-1.94,1.02-4.33,1.53-7.18,1.53-1.46,0-2.94-.15-4.45-.44-1.51-.29-2.99-.75-4.45-1.35s-2.86-1.38-4.21-2.31l3.33-5.88c.9.66,1.88,1.24,2.94,1.74,1.06.5,2.12.89,3.2,1.17,1.07.28,2.06.42,2.96.42s1.81-.13,2.73-.39c.92-.26,1.68-.7,2.29-1.33.61-.62.91-1.49.91-2.6,0-.76-.25-1.46-.75-2.08-.5-.62-1.18-1.2-2.03-1.72-.85-.52-1.78-.97-2.78-1.35-1.18-.45-2.39-.97-3.64-1.56s-2.42-1.31-3.51-2.16c-1.09-.85-1.98-1.91-2.65-3.17-.68-1.27-1.01-2.82-1.01-4.65,0-2.22.49-4.14,1.48-5.77.99-1.63,2.38-2.92,4.19-3.87,1.8-.95,3.88-1.48,6.24-1.59,3.09,0,5.59.36,7.51,1.09,1.92.73,3.65,1.59,5.17,2.6l-2.86,5.77Z"/>
    <path class="cls-1" d="m214.09,246.38h7.54v30.99h17.99v7.28h-25.53v-38.27Z"/>
    <path class="cls-1" d="m245.08,284.66l17.26-39.78h.42l17.26,39.78h-8.74l-11.02-27.98,5.46-3.74-13.21,31.72h-7.44Zm11.8-13.83h11.49l2.65,6.34h-16.48l2.34-6.34Z"/>
    <path class="cls-1" d="m298.8,246.38c3.99,0,7.16.81,9.52,2.42,2.36,1.61,3.54,4.01,3.54,7.2,0,2.36-.58,4.33-1.74,5.9-1.16,1.58-2.74,2.76-4.73,3.54-1.99.78-4.27,1.17-6.84,1.17l-1.2-4.06c3.15,0,5.95.43,8.4,1.3,2.44.87,4.38,2.11,5.8,3.72,1.42,1.61,2.13,3.54,2.13,5.8,0,2.08-.37,3.84-1.12,5.28-.75,1.44-1.75,2.6-3.02,3.48-1.27.88-2.7,1.53-4.29,1.92-1.6.4-3.24.6-4.94.6h-12.74v-38.27h11.23Zm.88,15.65c1.49,0,2.59-.45,3.3-1.35.71-.9,1.07-1.92,1.07-3.07,0-1.32-.44-2.3-1.33-2.96-.88-.66-2.07-.99-3.56-.99h-4.06v8.37h4.58Zm.26,15.6c1.11,0,2.11-.15,3.02-.44.9-.29,1.61-.76,2.13-1.4.52-.64.78-1.45.78-2.42,0-1.11-.31-1.95-.94-2.52-.62-.57-1.43-.97-2.42-1.2-.99-.23-2.02-.34-3.09-.34h-4.32v8.32h4.84Z"/>
  </g>
</svg>