<svg width="113" height="66" viewBox="0 0 113 66" fill="none" xmlns="http://www.w3.org/2000/svg">
<path d="M3.33629 42.3836H5.06998L8.30209 51.176H6.54363L5.72631 48.9841H2.65519L1.85026 51.176H0.0917969L3.33629 42.3836ZM5.41672 47.7829L4.20314 44.1545L2.94001 47.7829H5.41672Z" fill="#881F1F"/>
<path d="M9.26646 51.176V42.3836H15.1734V43.882H10.9754V46.1482H14.4675V47.5352H10.9754V51.176H9.26646Z" fill="#881F1F"/>
<path d="M16.3773 51.176V42.3836H20.2658C20.6703 42.3836 21.0418 42.4662 21.3803 42.6313C21.727 42.7964 22.0242 43.0193 22.2719 43.3C22.5278 43.5807 22.7218 43.8944 22.8539 44.2412C22.9943 44.5879 23.0644 44.9429 23.0644 45.3062C23.0644 45.6777 22.9984 46.0368 22.8663 46.3835C22.7425 46.722 22.5608 47.0192 22.3214 47.2751C22.082 47.5311 21.8013 47.7292 21.4793 47.8695L23.4855 51.176H21.6032L19.7952 48.2287H18.0863V51.176H16.3773ZM18.0863 46.7303H20.2286C20.4433 46.7303 20.6331 46.6683 20.7983 46.5445C20.9634 46.4124 21.0955 46.239 21.1945 46.0244C21.2936 45.8097 21.3431 45.5703 21.3431 45.3062C21.3431 45.0255 21.2853 44.7819 21.1698 44.5755C21.0542 44.3609 20.9056 44.1916 20.7239 44.0678C20.5506 43.944 20.3607 43.882 20.1543 43.882H18.0863V46.7303Z" fill="#881F1F"/>
<path d="M24.6129 51.176V42.3836H26.3218V51.176H24.6129Z" fill="#881F1F"/>
<path d="M27.6237 46.7179C27.6237 46.1813 27.7187 45.657 27.9085 45.1452C28.1067 44.6251 28.3915 44.1545 28.763 43.7334C29.1345 43.3041 29.5886 42.9657 30.1252 42.718C30.6618 42.4621 31.2727 42.3341 31.958 42.3341C32.767 42.3341 33.4646 42.5116 34.0508 42.8666C34.6452 43.2216 35.0869 43.6839 35.3758 44.2536L34.0632 45.1575C33.9146 44.8273 33.7206 44.5673 33.4811 44.3774C33.2417 44.1792 32.9858 44.043 32.7134 43.9687C32.4409 43.8862 32.1726 43.8449 31.9084 43.8449C31.4791 43.8449 31.1035 43.9316 30.7815 44.1049C30.4678 44.2783 30.2036 44.5053 29.989 44.786C29.7743 45.0667 29.6133 45.3805 29.506 45.7272C29.4069 46.0739 29.3574 46.4207 29.3574 46.7674C29.3574 47.1554 29.4193 47.5311 29.5432 47.8943C29.667 48.2493 29.8404 48.5672 30.0633 48.8478C30.2944 49.1203 30.5669 49.3391 30.8806 49.5042C31.2026 49.661 31.5534 49.7395 31.9332 49.7395C32.2056 49.7395 32.4822 49.6941 32.7629 49.6032C33.0436 49.5124 33.3036 49.368 33.5431 49.1698C33.7825 48.9717 33.9682 48.7158 34.1003 48.402L35.4997 49.207C35.3263 49.6445 35.0415 50.016 34.6452 50.3215C34.2572 50.627 33.8196 50.8581 33.3325 51.015C32.8454 51.1718 32.3625 51.2503 31.8837 51.2503C31.2562 51.2503 30.6825 51.1223 30.1623 50.8664C29.6422 50.6022 29.1923 50.2554 28.8125 49.8261C28.441 49.3886 28.148 48.9015 27.9333 48.3649C27.7269 47.82 27.6237 47.271 27.6237 46.7179Z" fill="#881F1F"/>
<path d="M38.9148 42.3836H40.6485L43.8806 51.176H42.1221L41.3048 48.9841H38.2337L37.4288 51.176H35.6703L38.9148 42.3836ZM40.9952 47.7829L39.7817 44.1545L38.5185 47.7829H40.9952Z" fill="#881F1F"/>
<path d="M46.5539 45.5291V51.176H44.845V42.3836H46.2072L50.7519 48.1791V42.396H52.4609V51.176H51.0367L46.5539 45.5291Z" fill="#881F1F"/>
<path d="M57.2648 51.176V42.3836H63.1718V43.882H58.9737V46.1482H62.4659V47.5352H58.9737V51.176H57.2648Z" fill="#881F1F"/>
<path d="M68.1031 51.2379C67.4014 51.2379 66.8028 51.1223 66.3075 50.8911C65.8204 50.6517 65.4241 50.3256 65.1187 49.9128C64.8215 49.5 64.6027 49.0336 64.4624 48.5135C64.322 47.9851 64.2518 47.4361 64.2518 46.8665V42.3836H65.9608V46.8665C65.9608 47.2297 65.9938 47.5847 66.0598 47.9315C66.1341 48.2699 66.2538 48.5754 66.419 48.8478C66.5841 49.1203 66.8028 49.3349 67.0753 49.4918C67.3477 49.6486 67.6862 49.7271 68.0907 49.7271C68.5035 49.7271 68.8461 49.6486 69.1186 49.4918C69.3993 49.3267 69.618 49.1079 69.7749 48.8355C69.94 48.563 70.0597 48.2576 70.134 47.9191C70.2083 47.5723 70.2455 47.2215 70.2455 46.8665V42.3836H71.942V46.8665C71.942 47.4691 71.8677 48.0347 71.7191 48.563C71.5788 49.0914 71.3517 49.5578 71.038 49.9624C70.7326 50.3586 70.3363 50.6724 69.8492 50.9035C69.3621 51.1264 68.7801 51.2379 68.1031 51.2379Z" fill="#881F1F"/>
<path d="M80.239 43.882H77.4279V51.176H75.7314V43.882H72.9203V42.3836H80.239V43.882Z" fill="#881F1F"/>
<path d="M85.0579 51.2379C84.3562 51.2379 83.7577 51.1223 83.2623 50.8911C82.7752 50.6517 82.379 50.3256 82.0735 49.9128C81.7763 49.5 81.5575 49.0336 81.4172 48.5135C81.2768 47.9851 81.2067 47.4361 81.2067 46.8665V42.3836H82.9156V46.8665C82.9156 47.2297 82.9486 47.5847 83.0147 47.9315C83.089 48.2699 83.2087 48.5754 83.3738 48.8478C83.5389 49.1203 83.7577 49.3349 84.0301 49.4918C84.3025 49.6486 84.641 49.7271 85.0456 49.7271C85.4583 49.7271 85.801 49.6486 86.0734 49.4918C86.3541 49.3267 86.5729 49.1079 86.7297 48.8355C86.8948 48.563 87.0145 48.2576 87.0888 47.9191C87.1631 47.5723 87.2003 47.2215 87.2003 46.8665V42.3836H88.8968V46.8665C88.8968 47.4691 88.8225 48.0347 88.6739 48.563C88.5336 49.0914 88.3066 49.5578 87.9928 49.9624C87.6874 50.3586 87.2911 50.6724 86.804 50.9035C86.3169 51.1264 85.7349 51.2379 85.0579 51.2379Z" fill="#881F1F"/>
<path d="M90.6181 51.176V42.3836H94.5066C94.9111 42.3836 95.2826 42.4662 95.6211 42.6313C95.9678 42.7964 96.265 43.0193 96.5127 43.3C96.7686 43.5807 96.9627 43.8944 97.0947 44.2412C97.2351 44.5879 97.3053 44.9429 97.3053 45.3062C97.3053 45.6777 97.2392 46.0368 97.1071 46.3835C96.9833 46.722 96.8017 47.0192 96.5623 47.2751C96.3228 47.5311 96.0421 47.7292 95.7202 47.8695L97.7263 51.176H95.844L94.036 48.2287H92.3271V51.176H90.6181ZM92.3271 46.7303H94.4694C94.6841 46.7303 94.874 46.6683 95.0391 46.5445C95.2042 46.4124 95.3363 46.239 95.4354 46.0244C95.5344 45.8097 95.584 45.5703 95.584 45.3062C95.584 45.0255 95.5262 44.7819 95.4106 44.5755C95.295 44.3609 95.1464 44.1916 94.9648 44.0678C94.7914 43.944 94.6015 43.882 94.3951 43.882H92.3271V46.7303Z" fill="#881F1F"/>
<path d="M104.959 49.6775V51.176H98.8537V42.3836H104.847V43.882H100.563V45.9996H104.265V47.3866H100.563V49.6775H104.959Z" fill="#881F1F"/>
<path d="M111.529 44.687C111.472 44.6292 111.364 44.5508 111.207 44.4517C111.059 44.3526 110.873 44.2577 110.65 44.1669C110.435 44.0761 110.2 43.9976 109.944 43.9316C109.688 43.8573 109.428 43.8201 109.164 43.8201C108.702 43.8201 108.351 43.9068 108.111 44.0802C107.88 44.2535 107.765 44.4971 107.765 44.8108C107.765 45.0502 107.839 45.2401 107.988 45.3805C108.136 45.5208 108.359 45.6405 108.656 45.7396C108.954 45.8386 109.325 45.946 109.771 46.0615C110.349 46.2019 110.848 46.3753 111.269 46.5817C111.699 46.7798 112.025 47.044 112.248 47.3742C112.479 47.6962 112.594 48.1255 112.594 48.6621C112.594 49.1327 112.508 49.5372 112.334 49.8757C112.161 50.2059 111.921 50.4742 111.616 50.6806C111.311 50.887 110.964 51.0397 110.576 51.1388C110.188 51.2296 109.775 51.275 109.337 51.275C108.9 51.275 108.462 51.2296 108.025 51.1388C107.587 51.048 107.166 50.92 106.762 50.7549C106.357 50.5815 105.986 50.3752 105.647 50.1357L106.403 48.6621C106.477 48.7364 106.609 48.8355 106.799 48.9593C106.989 49.0749 107.22 49.1946 107.492 49.3184C107.765 49.434 108.062 49.5331 108.384 49.6156C108.706 49.6982 109.032 49.7395 109.362 49.7395C109.825 49.7395 110.175 49.661 110.415 49.5042C110.654 49.3473 110.774 49.1244 110.774 48.8355C110.774 48.5713 110.679 48.3649 110.489 48.2163C110.299 48.0677 110.035 47.9397 109.697 47.8324C109.358 47.7168 108.958 47.593 108.495 47.4609C107.942 47.304 107.48 47.1307 107.108 46.9408C106.737 46.7426 106.46 46.495 106.279 46.1978C106.097 45.9006 106.006 45.5291 106.006 45.0832C106.006 44.4806 106.147 43.977 106.427 43.5725C106.716 43.1597 107.104 42.8501 107.591 42.6437C108.078 42.429 108.619 42.3217 109.214 42.3217C109.626 42.3217 110.014 42.3671 110.378 42.4579C110.749 42.5487 111.096 42.6685 111.418 42.8171C111.74 42.9657 112.029 43.1266 112.285 43.3L111.529 44.687Z" fill="#881F1F"/>
<path d="M45.6838 65.8814V57.0891H46.5506V65.1136H51.6279V65.8814H45.6838Z" fill="#881F1F"/>
<path d="M55.6279 57.0891H56.3585L60.0116 65.8814H59.0952L57.956 63.1323H54.0056L52.8787 65.8814H51.9499L55.6279 57.0891ZM57.7578 62.4512L55.987 58.1045L54.1914 62.4512H57.7578Z" fill="#881F1F"/>
<path d="M67.8849 63.6152C67.8849 64.0528 67.7734 64.4449 67.5505 64.7917C67.3276 65.1301 67.0263 65.3985 66.6465 65.5966C66.275 65.7865 65.8663 65.8814 65.4205 65.8814H61.272V57.0891H65.5072C65.92 57.0891 66.275 57.2006 66.5722 57.4235C66.8777 57.6381 67.1088 57.9188 67.2657 58.2655C67.4308 58.604 67.5133 58.959 67.5133 59.3305C67.5133 59.7681 67.4019 60.1726 67.179 60.5441C66.9561 60.9156 66.6465 61.1922 66.2502 61.3738C66.7538 61.5224 67.1501 61.799 67.439 62.2035C67.7363 62.608 67.8849 63.0786 67.8849 63.6152ZM67.018 63.4666C67.018 63.1694 66.952 62.897 66.8199 62.6493C66.6878 62.3934 66.5062 62.187 66.275 62.0301C66.0521 61.8733 65.7962 61.7948 65.5072 61.7948H62.1389V65.126H65.4205C65.7177 65.126 65.986 65.0476 66.2255 64.8907C66.4649 64.7339 66.6548 64.5316 66.7951 64.2839C66.9437 64.028 67.018 63.7556 67.018 63.4666ZM62.1389 57.8445V61.089H65.1605C65.4494 61.089 65.7054 61.0147 65.9283 60.8661C66.1512 60.7092 66.3287 60.507 66.4607 60.2593C66.5928 60.0116 66.6589 59.7474 66.6589 59.4667C66.6589 59.1695 66.597 58.9012 66.4731 58.6618C66.3493 58.4141 66.1801 58.216 65.9654 58.0674C65.7508 57.9188 65.5072 57.8445 65.2348 57.8445H62.1389Z" fill="#881F1F"/>
<circle cx="17.1212" cy="17.1212" r="17.1212" fill="#FBAD31"/>
<circle cx="56.5001" cy="17.1212" r="17.1212" fill="#FBAD31"/>
<circle cx="95.879" cy="17.1212" r="17.1212" fill="#FBAD31"/>
</svg>
