<svg width="355" height="315" viewBox="0 0 355 315" fill="none" xmlns="http://www.w3.org/2000/svg">
<g clip-path="url(#clip0_575_32)">
<path d="M201.713 13.9933C190.943 -4.66439 164.057 -4.66445 153.287 13.9932L3.79929 272.95C-6.98466 291.631 6.47165 315 28.0127 315H150.862C140.731 307.04 134.223 294.676 134.223 280.79C134.223 270.177 138.025 260.452 144.342 252.901H129.122C123.993 252.901 120.789 247.338 123.357 242.891L171.517 159.463C174.081 155.02 180.482 155.02 183.047 159.463L231.206 242.891C233.774 247.338 230.57 252.901 225.441 252.901H211.048C217.365 260.452 221.167 270.177 221.167 280.79C221.167 294.676 214.658 307.04 204.528 315H326.987C348.529 315 361.985 291.631 351.2 272.95L201.713 13.9933Z" fill="white"/>
</g>
<defs>
<clipPath id="clip0_575_32">
<rect width="355" height="315" fill="white"/>
</clipPath>
</defs>
</svg>
